# xmcd CD database file
# Copyright (C) 1995-1998 Ti Kan
#
# Track frame offsets:
#	150
#	22909
#	36326
#	54333
#	70897
#	85509
#	97534
#	107784
#	123528
#	128125
#	140172
#	152477
#	162786
#	174478
#	186652
#	197192
#	205657
#
# Disc length: 2897 seconds
#
# Revision: 1
# Processed by: cddbd v1.4b42PL0 Copyright (c) Steve Scherf et al.
# Submitted via: CDex 1.30Release
#
DISCID=e20b4f11
DTITLE=Varios - Hace Rin, Hace Ran, Hace Rondas. Disco 3
DYEAR=1990
DGENRE=Native American
TTITLE0=El Adverbio
TTITLE1=El Nombre Sustantivo
TTITLE2=El Verbo
TTITLE3=Pronombres Demostrativos Y Posesivos
TTITLE4=Pronombres Relativos
TTITLE5=La Comadre Chema
TTITLE6=Andándome Yo Paseándome
TTITLE7=El Artículo
TTITLE8=Cuánto Me Das Marinero
TTITLE9=Travesuras
TTITLE10=Viva El Agua Y El Jabón
TTITLE11=El Director De La Orquesta
TTITLE12=Los Números
TTITLE13=El Dedalito
TTITLE14=¿ A Dónde Vas Alfonso XII ?
TTITLE15=El Calaverón
TTITLE16=El Clarincito
EXTD=YEAR: 1990 ID3G:  64
EXTT0=
EXTT1=
EXTT2=
EXTT3=
EXTT4=
EXTT5=
EXTT6=
EXTT7=
EXTT8=
EXTT9=
EXTT10=
EXTT11=
EXTT12=
EXTT13=
EXTT14=
EXTT15=
EXTT16=
PLAYORDER=
